<svg width="114" height="115" viewBox="0 0 114 115" fill="none" xmlns="http://www.w3.org/2000/svg">
<path d="M57 75.3125C60.935 75.3125 64.125 72.1225 64.125 68.1875C64.125 64.2525 60.935 61.0625 57 61.0625C53.065 61.0625 49.875 64.2525 49.875 68.1875C49.875 72.1225 53.065 75.3125 57 75.3125Z" fill="url(#paint0_linear_630_9893)"/>
<path d="M84.7056 66.3314C82.5044 60.7237 78.706 55.8851 73.7811 52.4155C68.8562 48.9458 63.0215 46.9977 57 46.8125C50.9785 46.9977 45.1438 48.9458 40.2189 52.4155C35.2941 55.8851 31.4956 60.7237 29.2944 66.3314L28.5 68.1875L29.2944 70.0471C31.4962 75.6542 35.2948 80.4921 40.2197 83.961C45.1445 87.43 50.9789 89.3776 57 89.5625C63.0211 89.3776 68.8555 87.43 73.7803 83.961C78.7052 80.4921 82.5038 75.6542 84.7056 70.0471L85.5 68.1875L84.7056 66.3314ZM57 82.4375C54.1816 82.4375 51.4265 81.6017 49.0831 80.0359C46.7397 78.4701 44.9133 76.2446 43.8347 73.6407C42.7562 71.0369 42.474 68.1717 43.0238 65.4075C43.5736 62.6432 44.9308 60.1041 46.9237 58.1112C48.9166 56.1183 51.4557 54.7611 54.22 54.2113C56.9842 53.6615 59.8494 53.9437 62.4532 55.0222C65.0571 56.1008 67.2826 57.9272 68.8484 60.2706C70.4142 62.614 71.25 65.3691 71.25 68.1875C71.2453 71.9654 69.7424 75.5872 67.0711 78.2586C64.3997 80.9299 60.7779 82.4328 57 82.4375Z" fill="url(#paint1_linear_630_9893)"/>
<path d="M96.1875 11.1875H17.8125C15.9228 11.1875 14.1106 11.9382 12.7744 13.2744C11.4382 14.6106 10.6875 16.4228 10.6875 18.3125V96.6875C10.6875 98.5772 11.4382 100.389 12.7744 101.726C14.1106 103.062 15.9228 103.812 17.8125 103.812H96.1875C98.0772 103.812 99.8894 103.062 101.226 101.726C102.562 100.389 103.312 98.5772 103.312 96.6875V18.3125C103.312 16.4228 102.562 14.6106 101.226 13.2744C99.8894 11.9382 98.0772 11.1875 96.1875 11.1875ZM17.8125 18.3125H96.1875V32.5625H17.8125V18.3125ZM17.8125 96.6875V39.6875H96.1875V96.6875H17.8125Z" fill="url(#paint2_linear_630_9893)"/>
<defs>
<linearGradient id="paint0_linear_630_9893" x1="49.875" y1="65.5307" x2="64.4084" y2="65.6075" gradientUnits="userSpaceOnUse">
<stop stop-color="#9C3FE4"/>
<stop offset="1" stop-color="#C65647"/>
</linearGradient>
<linearGradient id="paint1_linear_630_9893" x1="28.5" y1="60.2172" x2="86.6322" y2="60.6268" gradientUnits="userSpaceOnUse">
<stop stop-color="#9C3FE4"/>
<stop offset="1" stop-color="#C65647"/>
</linearGradient>
<linearGradient id="paint2_linear_630_9893" x1="10.6875" y1="40.2309" x2="105.154" y2="40.7302" gradientUnits="userSpaceOnUse">
<stop stop-color="#9C3FE4"/>
<stop offset="1" stop-color="#C65647"/>
</linearGradient>
</defs>
</svg>
