<svg width="125" height="121" viewBox="0 0 125 121" fill="none" xmlns="http://www.w3.org/2000/svg">
<path fill-rule="evenodd" clip-rule="evenodd" d="M64.7711 40.8801C63.3182 39.2756 62.502 37.0996 62.502 34.8308C62.502 32.5619 63.3182 30.386 64.7711 28.7814L88.0217 3.11217C88.7367 2.29495 89.5919 1.6431 90.5374 1.19467C91.483 0.746235 92.5 0.510196 93.529 0.500323C94.5581 0.490451 95.5787 0.706942 96.5311 1.13717C97.4836 1.56739 98.3489 2.20273 99.0766 3.00611C99.8043 3.8095 100.38 4.76484 100.769 5.81639C101.159 6.86794 101.355 7.99464 101.346 9.13076C101.337 10.2669 101.124 11.3896 100.717 12.4336C100.311 13.4775 99.7208 14.4216 98.9805 15.2109L75.7299 40.8801C74.2765 42.4842 72.3056 43.3853 70.2505 43.3853C68.1954 43.3853 66.2245 42.4842 64.7711 40.8801Z" fill="url(#paint0_linear_630_9770)"/>
<path fill-rule="evenodd" clip-rule="evenodd" d="M122.231 40.8798C120.777 42.4839 118.806 43.385 116.751 43.385C114.696 43.385 112.725 42.4839 111.272 40.8798L88.0213 15.2106C86.6095 13.5968 85.8283 11.4355 85.846 9.19202C85.8637 6.94855 86.6787 4.8025 88.1157 3.21608C89.5526 1.62965 91.4965 0.729779 93.5286 0.710284C95.5607 0.690789 97.5184 1.55323 98.9801 3.11185L122.231 28.7811C123.684 30.3856 124.5 32.5616 124.5 34.8305C124.5 37.0993 123.684 39.2753 122.231 40.8798Z" fill="url(#paint1_linear_630_9770)"/>
<path fill-rule="evenodd" clip-rule="evenodd" d="M93.5004 17.7178C95.5559 17.7178 97.5272 18.6193 98.9806 20.2239C100.434 21.8285 101.251 24.0049 101.251 26.2742V94.7254C101.251 96.9948 100.434 99.1711 98.9806 100.776C97.5272 102.38 95.5559 103.282 93.5004 103.282C91.4449 103.282 89.4736 102.38 88.0202 100.776C86.5668 99.1711 85.7502 96.9948 85.7502 94.7254V26.2742C85.7502 24.0049 86.5668 21.8285 88.0202 20.2239C89.4736 18.6193 91.4449 17.7178 93.5004 17.7178ZM60.2288 80.1197C61.6817 81.7242 62.4979 83.9002 62.4979 86.169C62.4979 88.4379 61.6817 90.6139 60.2288 92.2184L36.9781 117.888C35.5164 119.446 33.5587 120.309 31.5266 120.289C29.4945 120.27 27.5507 119.37 26.1137 117.783C24.6768 116.197 23.8617 114.051 23.844 111.807C23.8264 109.564 24.6076 107.403 26.0193 105.789L49.27 80.1197C50.7233 78.5156 52.6943 77.6145 54.7494 77.6145C56.8044 77.6145 58.7754 78.5156 60.2288 80.1197Z" fill="url(#paint2_linear_630_9770)"/>
<path fill-rule="evenodd" clip-rule="evenodd" d="M2.76916 80.1195C4.22254 78.5154 6.19348 77.6143 8.24856 77.6143C10.3036 77.6143 12.2746 78.5154 13.728 80.1195L36.9786 105.789C37.7188 106.578 38.3092 107.522 38.7154 108.566C39.1216 109.61 39.3354 110.733 39.3443 111.869C39.3533 113.005 39.1572 114.132 38.7675 115.183C38.3778 116.235 37.8023 117.19 37.0747 117.993C36.347 118.797 35.4816 119.432 34.5292 119.862C33.5767 120.293 32.5561 120.509 31.5271 120.499C30.498 120.489 29.481 120.253 28.5355 119.805C27.5899 119.357 26.7347 118.705 26.0198 117.887L2.76916 92.2182C1.31622 90.6137 0.5 88.4377 0.5 86.1688C0.5 83.9 1.31622 81.724 2.76916 80.1195Z" fill="url(#paint3_linear_630_9770)"/>
<path fill-rule="evenodd" clip-rule="evenodd" d="M31.4992 103.282C29.4438 103.282 27.4725 102.38 26.019 100.776C24.5656 99.1711 23.749 96.9947 23.749 94.7254V26.2742C23.749 24.0049 24.5656 21.8285 26.019 20.2239C27.4725 18.6193 29.4438 17.7178 31.4992 17.7178C33.5547 17.7178 35.526 18.6193 36.9795 20.2239C38.4329 21.8285 39.2494 24.0049 39.2494 26.2742V94.7254C39.2494 96.9947 38.4329 99.1711 36.9795 100.776C35.526 102.38 33.5547 103.282 31.4992 103.282Z" fill="url(#paint4_linear_630_9770)"/>
<defs>
<linearGradient id="paint0_linear_630_9770" x1="62.502" y1="13.9471" x2="102.119" y2="14.1367" gradientUnits="userSpaceOnUse">
<stop stop-color="#9C3FE4"/>
<stop offset="1" stop-color="#C65647"/>
</linearGradient>
<linearGradient id="paint1_linear_630_9770" x1="85.8457" y1="14.0911" x2="125.269" y2="14.2798" gradientUnits="userSpaceOnUse">
<stop stop-color="#9C3FE4"/>
<stop offset="1" stop-color="#C65647"/>
</linearGradient>
<linearGradient id="paint2_linear_630_9770" x1="23.8438" y1="49.8801" x2="102.791" y2="50.195" gradientUnits="userSpaceOnUse">
<stop stop-color="#9C3FE4"/>
<stop offset="1" stop-color="#C65647"/>
</linearGradient>
<linearGradient id="paint3_linear_630_9770" x1="0.5" y1="91.0614" x2="40.1173" y2="91.251" gradientUnits="userSpaceOnUse">
<stop stop-color="#9C3FE4"/>
<stop offset="1" stop-color="#C65647"/>
</linearGradient>
<linearGradient id="paint4_linear_630_9770" x1="23.749" y1="44.5472" x2="39.5581" y2="44.5623" gradientUnits="userSpaceOnUse">
<stop stop-color="#9C3FE4"/>
<stop offset="1" stop-color="#C65647"/>
</linearGradient>
</defs>
</svg>
